<?xml version="1.0" encoding="UTF-8"?>
<svg xmlns="http://www.w3.org/2000/svg" xmlns:xlink="http://www.w3.org/1999/xlink" width="42px" height="42px"
  viewBox="0 0 42 42" version="1.1">
  <g id="surface1">
    <path fill="url(#paint0_linear_14_55)"
      d="M 3.28125 0 L 38.71875 0 C 40.53125 0 42 1.46875 42 3.28125 L 42 38.71875 C 42 40.53125 40.53125 42 38.71875 42 L 3.28125 42 C 1.46875 42 0 40.53125 0 38.71875 L 0 3.28125 C 0 1.46875 1.46875 0 3.28125 0 Z M 3.28125 0 " />
    <path fill="#000000"
      d="M 24.695312 32.890625 L 24.695312 37.421875 C 25.429688 37.800781 26.304688 38.082031 27.308594 38.273438 C 28.316406 38.460938 29.375 38.554688 30.492188 38.554688 C 31.578125 38.554688 32.609375 38.449219 33.585938 38.242188 C 34.566406 38.035156 35.421875 37.691406 36.160156 37.214844 C 36.898438 36.738281 37.480469 36.117188 37.910156 35.347656 C 38.339844 34.578125 38.554688 33.625 38.554688 32.492188 C 38.554688 31.671875 38.433594 30.953125 38.1875 30.335938 C 37.941406 29.71875 37.582031 29.160156 37.125 28.683594 C 36.660156 28.203125 36.105469 27.773438 35.457031 27.390625 C 34.8125 27.007812 34.082031 26.644531 33.269531 26.304688 C 32.671875 26.058594 32.140625 25.820312 31.667969 25.589844 C 31.195312 25.359375 30.792969 25.125 30.460938 24.882812 C 30.132812 24.640625 29.875 24.386719 29.695312 24.117188 C 29.519531 23.847656 29.429688 23.542969 29.429688 23.203125 C 29.429688 22.894531 29.507812 22.613281 29.667969 22.363281 C 29.828125 22.113281 30.054688 21.898438 30.347656 21.71875 C 30.640625 21.539062 31 21.398438 31.425781 21.300781 C 31.851562 21.199219 32.324219 21.152344 32.84375 21.152344 C 33.222656 21.152344 33.621094 21.179688 34.039062 21.238281 C 34.460938 21.292969 34.882812 21.378906 35.308594 21.5 C 35.734375 21.617188 36.148438 21.765625 36.550781 21.945312 C 36.9375 22.117188 37.3125 22.324219 37.660156 22.566406 L 37.660156 18.332031 C 36.972656 18.070312 36.21875 17.875 35.402344 17.746094 C 34.585938 17.617188 33.644531 17.554688 32.589844 17.554688 C 31.511719 17.554688 30.492188 17.671875 29.527344 17.902344 C 28.5625 18.132812 27.714844 18.492188 26.984375 18.984375 C 26.25 19.476562 25.671875 20.101562 25.246094 20.859375 C 24.820312 21.621094 24.609375 22.53125 24.609375 23.585938 C 24.609375 24.9375 25 26.089844 25.777344 27.042969 C 26.558594 27.996094 27.742188 28.804688 29.328125 29.464844 C 29.914062 29.703125 30.496094 29.953125 31.070312 30.214844 C 31.609375 30.460938 32.074219 30.714844 32.46875 30.980469 C 32.859375 31.242188 33.167969 31.53125 33.394531 31.84375 C 33.621094 32.152344 33.734375 32.507812 33.734375 32.90625 C 33.738281 33.191406 33.664062 33.472656 33.523438 33.71875 C 33.382812 33.96875 33.167969 34.1875 32.878906 34.371094 C 32.589844 34.554688 32.230469 34.699219 31.800781 34.800781 C 31.371094 34.90625 30.867188 34.957031 30.292969 34.957031 C 29.308594 34.957031 28.335938 34.785156 27.371094 34.441406 C 26.410156 34.097656 25.515625 33.578125 24.695312 32.890625 Z M 17.140625 21.613281 L 22.96875 21.613281 L 22.96875 17.882812 L 6.726562 17.882812 L 6.726562 21.613281 L 12.523438 21.613281 L 12.523438 38.226562 L 17.140625 38.226562 Z M 17.140625 21.613281 " />
  </g>

  <defs>
    <linearGradient id="paint0_linear_14_55" x1="21" y1="0" x2="21" y2="42" gradientUnits="userSpaceOnUse">
      <stop stop-color="#FDFDFD" />
      <stop offset="1" stop-color="white" stop-opacity="0.18" />
    </linearGradient>
  </defs>
</svg>